<svg width="13" height="13" viewBox="0 0 13 13" fill="none" xmlns="http://www.w3.org/2000/svg">
<path d="M8.78049 3.68293L12.2683 4.19512C12.561 4.2439 12.8049 4.43902 12.9024 4.73171C13 5 12.9268 5.31707 12.7073 5.5122L10.1707 8.02439L10.7805 11.5854C10.8293 11.878 10.7073 12.1707 10.4634 12.3415C10.2195 12.5366 9.90244 12.5366 9.63415 12.4146L6.5122 10.7317L3.36585 12.4146C3.12195 12.5366 2.78049 12.5366 2.56098 12.3415C2.31707 12.1707 2.19512 11.878 2.2439 11.5854L2.82927 8.02439L0.292683 5.5122C0.0731707 5.31707 0 5 0.097561 4.73171C0.195122 4.43902 0.439024 4.2439 0.731707 4.19512L4.2439 3.68293L5.80488 0.439024C5.92683 0.170732 6.19512 0 6.5122 0C6.80488 0 7.07317 0.170732 7.19512 0.439024L8.78049 3.68293Z" fill="#FF991F"/>
</svg>
