<svg width="551" height="434" viewBox="0 0 551 434" fill="none" xmlns="http://www.w3.org/2000/svg">
<path d="M495.788 403.483H459.289V403.777H495.788V403.483Z" fill="#EBEBEB"/>
<path d="M365.013 406.679H355.436V406.972H365.013V406.679Z" fill="#EBEBEB"/>
<path d="M458.186 392.581H437.039V392.875H458.186V392.581Z" fill="#EBEBEB"/>
<path d="M105.4 394.557H57.8042V394.851H105.4V394.557Z" fill="#EBEBEB"/>
<path d="M122.195 394.557H115.22V394.851H122.195V394.557Z" fill="#EBEBEB"/>
<path d="M248.107 399.513H144.871V399.807H248.107V399.513Z" fill="#EBEBEB"/>
<path d="M261.178 332.193H48.4035C46.7347 332.193 45.1342 331.487 43.9541 330.229C42.774 328.971 42.1111 327.265 42.1111 325.486V6.64856C42.1256 4.87987 42.795 3.1889 43.9735 1.94371C45.1519 0.698525 46.7442 -6.78082e-05 48.4035 4.93655e-09H261.178C262.847 4.93657e-09 264.447 0.70666 265.627 1.96452C266.807 3.22238 267.47 4.92841 267.47 6.70729V325.486C267.47 327.265 266.807 328.971 265.627 330.229C264.447 331.487 262.847 332.193 261.178 332.193ZM48.4035 0.234932C46.8086 0.238038 45.2799 0.914753 44.1521 2.11687C43.0244 3.31899 42.3895 4.94852 42.3866 6.64856V325.486C42.3895 327.186 43.0244 328.815 44.1521 330.018C45.2799 331.22 46.8086 331.896 48.4035 331.9H261.178C262.773 331.896 264.301 331.22 265.429 330.018C266.557 328.815 267.192 327.186 267.195 325.486V6.64856C267.192 4.94852 266.557 3.31899 265.429 2.11687C264.301 0.914753 262.773 0.238038 261.178 0.234932H48.4035Z" fill="#EBEBEB"/>
<path d="M499.543 332.193H286.747C285.079 332.19 283.48 331.482 282.3 330.225C281.121 328.968 280.457 327.264 280.454 325.486V6.64856C280.472 4.88084 281.142 3.19164 282.32 1.9471C283.498 0.702573 285.088 0.00299337 286.747 0H499.543C501.198 0.0061135 502.785 0.707437 503.959 1.95196C505.132 3.19649 505.799 4.88394 505.813 6.64856V325.486C505.813 327.261 505.153 328.963 503.978 330.22C502.803 331.478 501.208 332.187 499.543 332.193ZM286.747 0.234932C285.152 0.238038 283.623 0.914753 282.495 2.11687C281.367 3.31899 280.733 4.94852 280.73 6.64856V325.486C280.733 327.186 281.367 328.815 282.495 330.018C283.623 331.22 285.152 331.896 286.747 331.9H499.543C501.138 331.896 502.666 331.22 503.794 330.018C504.922 328.815 505.557 327.186 505.56 325.486V6.64856C505.557 4.94852 504.922 3.31899 503.794 2.11687C502.666 0.914753 501.138 0.238038 499.543 0.234932H286.747Z" fill="#EBEBEB"/>
<path d="M551 384.583H0V384.877H551V384.583Z" fill="#EBEBEB"/>
<path d="M188.33 357.567H213.863L200.441 241.041C200.118 238.605 198.996 236.37 197.272 234.733C195.549 233.096 193.337 232.164 191.03 232.102H79.6177L95.9493 357.567H188.33Z" fill="#F5F5F5"/>
<path d="M107.343 357.566H81.81L68.3876 241.04C68.2226 239.92 68.2906 238.775 68.5866 237.685C68.8826 236.596 69.3994 235.59 70.1006 234.737C70.8017 233.884 71.6701 233.206 72.6442 232.751C73.6184 232.295 74.6745 232.073 75.7379 232.101H84.5539C86.86 232.163 89.0705 233.096 90.7919 234.733C92.5132 236.37 93.6338 238.605 93.954 241.04L107.343 357.566Z" fill="#F0F0F0"/>
<path d="M116.813 357.424L112.185 301.04C112.084 299.814 111.592 298.661 110.789 297.776C109.987 296.891 108.923 296.326 107.777 296.177L105.87 295.919C104.339 295.711 102.92 294.951 101.85 293.765C100.779 292.579 100.121 291.039 99.9854 289.399L99.1809 279.145C99.1035 278.157 99.2183 277.163 99.5181 276.224C99.8179 275.286 100.296 274.424 100.923 273.691C101.55 272.959 102.312 272.373 103.161 271.969C104.011 271.565 104.929 271.353 105.859 271.345H63.1896C62.252 271.344 61.3245 271.552 60.4662 271.954C59.6079 272.356 58.8375 272.945 58.2042 273.682C57.5708 274.419 57.0883 275.288 56.7874 276.235C56.4865 277.181 56.3738 278.184 56.4564 279.18L57.2939 289.458C57.4259 291.099 58.0824 292.642 59.1535 293.828C60.2247 295.015 61.6456 295.774 63.1786 295.978L65.074 296.236C66.2197 296.387 67.2823 296.952 68.0844 297.837C68.8865 298.722 69.3798 299.873 69.482 301.099L74.1104 357.483C74.2835 359.457 75.1424 361.291 76.5185 362.625C77.8946 363.96 79.6887 364.698 81.5489 364.695H124.196C122.338 364.679 120.551 363.925 119.186 362.581C117.821 361.236 116.975 359.398 116.813 357.424Z" fill="#E6E6E6"/>
<path d="M234.188 286.956C234.546 282.691 236.389 278.722 239.355 275.833C242.32 272.944 246.193 271.343 250.211 271.345H213.051C209.03 271.346 205.156 272.954 202.192 275.85C199.228 278.746 197.389 282.722 197.039 286.991L193.37 331.628H230.529L234.188 286.956Z" fill="#E6E6E6"/>
<path d="M266.679 271.345H250.149C246.126 271.344 242.249 272.95 239.283 275.846C236.316 278.743 234.476 282.72 234.126 286.992L230.468 331.629H142.043L138.373 286.992C138.023 282.714 136.178 278.732 133.205 275.834C130.232 272.937 126.346 271.335 122.317 271.345H105.787C104.863 271.363 103.952 271.582 103.11 271.99C102.269 272.398 101.515 272.986 100.895 273.717C100.275 274.448 99.8027 275.307 99.5069 276.241C99.2111 277.174 99.0983 278.163 99.1754 279.145L100.013 289.423C100.149 291.062 100.807 292.603 101.877 293.789C102.947 294.974 104.366 295.734 105.898 295.942L107.804 296.201C108.951 296.35 110.014 296.914 110.817 297.8C111.619 298.685 112.112 299.837 112.212 301.064L116.84 357.447C117.003 359.431 117.857 361.278 119.234 362.624C120.611 363.97 122.411 364.717 124.279 364.719H248.364C250.232 364.717 252.032 363.97 253.409 362.624C254.786 361.278 255.64 359.431 255.803 357.447L260.431 301.064C260.533 299.838 261.027 298.687 261.829 297.802C262.631 296.917 263.693 296.352 264.839 296.201L266.734 295.942C268.268 295.739 269.688 294.98 270.76 293.793C271.831 292.607 272.487 291.064 272.619 289.423L273.457 279.145C273.535 278.148 273.417 277.145 273.111 276.199C272.806 275.254 272.319 274.386 271.681 273.653C271.043 272.919 270.269 272.335 269.408 271.937C268.547 271.54 267.618 271.338 266.679 271.345Z" fill="#F0F0F0"/>
<path d="M155.3 161.788C182.317 161.788 204.218 138.443 204.218 109.645C204.218 80.847 182.317 57.5018 155.3 57.5018C128.284 57.5018 106.382 80.847 106.382 109.645C106.382 138.443 128.284 161.788 155.3 161.788Z" fill="#F5F5F5"/>
<path d="M155.311 153.857C178.219 153.857 196.79 134.061 196.79 109.643C196.79 85.2237 178.219 65.4284 155.311 65.4284C132.403 65.4284 113.832 85.2237 113.832 109.643C113.832 134.061 132.403 153.857 155.311 153.857Z" fill="#FAFAFA"/>
<path d="M155.301 65.4308C154.651 65.4308 154.001 65.4308 153.351 65.4308C164.01 65.955 174.069 70.8373 181.438 79.0628C188.807 87.2883 192.918 98.2244 192.918 109.598C192.918 120.971 188.807 131.908 181.438 140.133C174.069 148.359 164.01 153.241 153.351 153.765C154.001 153.765 154.651 153.765 155.301 153.765C166.302 153.765 176.853 149.107 184.632 140.815C192.411 132.523 196.781 121.277 196.781 109.551C196.781 97.8246 192.411 86.5786 184.632 78.2868C176.853 69.9951 166.302 65.3368 155.301 65.3368V65.4308Z" fill="#E6E6E6"/>
<path d="M155.323 153.809C156.37 153.75 157.406 153.645 158.442 153.515V112.966H194.731C194.808 111.862 194.852 110.758 194.852 109.642C194.852 108.526 194.852 107.422 194.731 106.318H158.431V65.7803C157.395 65.6393 156.359 65.5336 155.312 65.4866H152.193V106.329H113.877V112.978H152.193V153.821L155.323 153.809Z" fill="#F0F0F0"/>
<path d="M152.192 65.4736H149.073V106.316H152.192V65.4736Z" fill="#E6E6E6"/>
<path d="M152.192 112.968H149.073V153.81H152.192V112.968Z" fill="#E6E6E6"/>
<path d="M395.704 161.788C422.721 161.788 444.622 138.443 444.622 109.645C444.622 80.847 422.721 57.5018 395.704 57.5018C368.688 57.5018 346.786 80.847 346.786 109.645C346.786 138.443 368.688 161.788 395.704 161.788Z" fill="#F5F5F5"/>
<path d="M395.698 153.857C418.606 153.857 437.177 134.061 437.177 109.643C437.177 85.2237 418.606 65.4284 395.698 65.4284C372.789 65.4284 354.219 85.2237 354.219 109.643C354.219 134.061 372.789 153.857 395.698 153.857Z" fill="#FAFAFA"/>
<path d="M395.694 65.4308C395.044 65.4308 394.394 65.4308 393.755 65.4308C404.414 65.955 414.473 70.8373 421.842 79.0628C429.211 87.2883 433.322 98.2244 433.322 109.598C433.322 120.971 429.211 131.908 421.842 140.133C414.473 148.359 404.414 153.241 393.755 153.765C394.394 153.765 395.044 153.765 395.694 153.765C406.695 153.765 417.246 149.107 425.025 140.815C432.804 132.523 437.174 121.277 437.174 109.551C437.174 97.8246 432.804 86.5786 425.025 78.2868C417.246 69.9951 406.695 65.3368 395.694 65.3368V65.4308Z" fill="#E6E6E6"/>
<path d="M395.721 153.809C396.823 153.75 397.815 153.645 398.839 153.515V112.966H435.128C435.205 111.862 435.261 110.758 435.261 109.642C435.261 108.526 435.205 107.422 435.128 106.318H398.817V65.7803C397.793 65.6393 396.757 65.5336 395.699 65.4866H392.58V106.329H354.264V112.978H392.58V153.821L395.721 153.809Z" fill="#F0F0F0"/>
<path d="M392.596 65.4736H389.477V106.316H392.596V65.4736Z" fill="#E6E6E6"/>
<path d="M392.596 112.968H389.477V153.81H392.596V112.968Z" fill="#E6E6E6"/>
<path d="M311.386 352.127H396.097V320.963H311.386V352.127Z" fill="#EBEBEB"/>
<path d="M311.386 383.302H396.097V352.138H311.386V383.302Z" fill="#EBEBEB"/>
<path d="M399.047 352.127H483.757V320.963H399.047V352.127Z" fill="#EBEBEB"/>
<path d="M399.047 383.302H483.757V352.138H399.047V383.302Z" fill="#EBEBEB"/>
<path d="M451.564 352.129L441.018 320.965H457.24L467.786 352.129H451.564Z" fill="#F0F0F0"/>
<path d="M433.18 320.965H436.74L447.286 352.129H443.716L433.18 320.965Z" fill="#F0F0F0"/>
<path d="M462.094 383.303L451.559 352.127H467.781L478.316 383.303H462.094Z" fill="#F0F0F0"/>
<path d="M443.704 352.127H447.274L457.81 383.303H454.25L443.704 352.127Z" fill="#F0F0F0"/>
<path d="M330.401 352.129L319.866 320.965H336.087L346.622 352.129H330.401Z" fill="#F0F0F0"/>
<path d="M312.028 320.965H315.587L326.122 352.129H322.563L312.028 320.965Z" fill="#F0F0F0"/>
<path d="M340.953 383.303L330.407 352.127H346.628L357.174 383.303H340.953Z" fill="#F0F0F0"/>
<path d="M322.551 352.127H326.11L336.657 383.303H333.086L322.551 352.127Z" fill="#F0F0F0"/>
<path d="M483.757 325.757V322.609H399.047V325.757H483.757Z" fill="#E0E0E0"/>
<path d="M483.757 356.673V353.525H399.047V356.673H483.757Z" fill="#E0E0E0"/>
<path d="M439.243 340.532C438.907 340.532 438.584 340.39 438.347 340.136C438.109 339.883 437.976 339.539 437.976 339.181C437.976 338.823 438.109 338.479 438.347 338.226C438.584 337.972 438.907 337.83 439.243 337.83H443.574C443.91 337.83 444.232 337.972 444.47 338.226C444.708 338.479 444.841 338.823 444.841 339.181C444.841 339.539 444.708 339.883 444.47 340.136C444.232 340.39 443.91 340.532 443.574 340.532H439.243Z" fill="#E0E0E0"/>
<path d="M439.23 340.062C439.053 340.08 438.874 340.058 438.706 339.998C438.537 339.937 438.382 339.84 438.251 339.713C438.119 339.585 438.014 339.429 437.942 339.256C437.87 339.083 437.833 338.895 437.833 338.705C437.833 338.516 437.87 338.328 437.942 338.155C438.014 337.982 438.119 337.826 438.251 337.698C438.382 337.571 438.537 337.474 438.706 337.413C438.874 337.353 439.053 337.331 439.23 337.349H443.561C443.878 337.38 444.173 337.537 444.387 337.788C444.602 338.039 444.721 338.366 444.721 338.705C444.721 339.045 444.602 339.372 444.387 339.623C444.173 339.874 443.878 340.031 443.561 340.062H439.23Z" fill="#F5F5F5"/>
<path d="M439.23 369.31C439.053 369.328 438.874 369.306 438.706 369.245C438.537 369.185 438.382 369.088 438.251 368.961C438.119 368.833 438.014 368.677 437.942 368.504C437.87 368.33 437.833 368.143 437.833 367.953C437.833 367.764 437.87 367.576 437.942 367.403C438.014 367.229 438.119 367.074 438.251 366.946C438.382 366.818 438.537 366.721 438.706 366.661C438.874 366.601 439.053 366.579 439.23 366.597H443.561C443.878 366.628 444.173 366.785 444.387 367.036C444.602 367.287 444.721 367.614 444.721 367.953C444.721 368.293 444.602 368.62 444.387 368.871C444.173 369.122 443.878 369.279 443.561 369.31H439.23Z" fill="#E0E0E0"/>
<path d="M439.23 368.844C439.053 368.862 438.874 368.84 438.706 368.779C438.537 368.719 438.382 368.622 438.251 368.495C438.119 368.367 438.014 368.211 437.942 368.038C437.87 367.864 437.833 367.677 437.833 367.487C437.833 367.298 437.87 367.11 437.942 366.937C438.014 366.763 438.119 366.608 438.251 366.48C438.382 366.352 438.537 366.255 438.706 366.195C438.874 366.135 439.053 366.113 439.23 366.131H443.561C443.878 366.162 444.173 366.319 444.387 366.57C444.602 366.821 444.721 367.148 444.721 367.487C444.721 367.827 444.602 368.154 444.387 368.405C444.173 368.656 443.878 368.813 443.561 368.844H439.23Z" fill="#F5F5F5"/>
<path d="M397.565 319.567V384.667H485.229V319.567H397.565ZM400.518 353.785H482.276V381.507H400.518V353.785ZM400.518 322.904H482.276V350.625H400.518V322.904Z" fill="#F5F5F5"/>
<path d="M396.097 325.757V322.609H311.386V325.757H396.097Z" fill="#E0E0E0"/>
<path d="M396.08 356.686V353.538H311.369V356.686H396.08Z" fill="#E0E0E0"/>
<path d="M351.534 340.532C351.198 340.532 350.876 340.39 350.638 340.136C350.4 339.883 350.267 339.539 350.267 339.181C350.267 338.823 350.4 338.479 350.638 338.226C350.876 337.972 351.198 337.83 351.534 337.83H355.942C356.278 337.83 356.6 337.972 356.838 338.226C357.076 338.479 357.209 338.823 357.209 339.181C357.209 339.539 357.076 339.883 356.838 340.136C356.6 340.39 356.278 340.532 355.942 340.532H351.534Z" fill="#E0E0E0"/>
<path d="M351.537 340.065C351.22 340.033 350.926 339.877 350.711 339.626C350.497 339.375 350.378 339.047 350.378 338.708C350.378 338.368 350.497 338.041 350.711 337.79C350.926 337.539 351.22 337.383 351.537 337.351H355.945C356.263 337.383 356.557 337.539 356.772 337.79C356.986 338.041 357.105 338.368 357.105 338.708C357.105 339.047 356.986 339.375 356.772 339.626C356.557 339.877 356.263 340.033 355.945 340.065H351.537Z" fill="#F5F5F5"/>
<path d="M351.537 369.312C351.22 369.281 350.926 369.124 350.711 368.873C350.497 368.623 350.378 368.295 350.378 367.956C350.378 367.616 350.497 367.289 350.711 367.038C350.926 366.787 351.22 366.631 351.537 366.599H355.945C356.263 366.631 356.557 366.787 356.772 367.038C356.986 367.289 357.105 367.616 357.105 367.956C357.105 368.295 356.986 368.623 356.772 368.873C356.557 369.124 356.263 369.281 355.945 369.312H351.537Z" fill="#E0E0E0"/>
<path d="M351.537 368.843C351.22 368.811 350.926 368.655 350.711 368.404C350.497 368.153 350.378 367.826 350.378 367.486C350.378 367.147 350.497 366.819 350.711 366.568C350.926 366.317 351.22 366.161 351.537 366.129H355.945C356.263 366.161 356.557 366.317 356.772 366.568C356.986 366.819 357.105 367.147 357.105 367.486C357.105 367.826 356.986 368.153 356.772 368.404C356.557 368.655 356.263 368.811 355.945 368.843H351.537Z" fill="#F5F5F5"/>
<path d="M309.887 319.567V384.667H397.562V319.567H309.887ZM312.851 353.785H394.598V381.507H312.851V353.785ZM312.851 322.904H394.598V350.625H312.851V322.904Z" fill="#F5F5F5"/>
<path d="M435.292 314.422H422.223L419.192 300.714H413.958L410.938 314.422H397.824C397.292 314.421 396.765 314.531 396.273 314.747C395.781 314.963 395.334 315.28 394.957 315.681C394.581 316.081 394.282 316.557 394.078 317.081C393.874 317.604 393.769 318.166 393.769 318.733V319.567H439.326V318.733C439.326 317.592 438.901 316.497 438.145 315.689C437.389 314.881 436.363 314.425 435.292 314.422Z" fill="#E0E0E0"/>
<path d="M474.528 227.812H358.653V307.759H474.528V227.812Z" fill="#E0E0E0"/>
<path d="M472.32 230.163H360.853V301.888H472.32V230.163Z" fill="#F5F5F5"/>
<path d="M422.288 301.888H463.294L439.039 230.163H398.033L422.288 301.888Z" fill="#FAFAFA"/>
<path d="M402.442 301.888H411.456L387.201 230.163H378.187L402.442 301.888Z" fill="#FAFAFA"/>
<path d="M243.393 384.723H127.429V363.52H246.699L243.393 384.723Z" fill="#F5F5F5"/>
<path d="M136.862 384.875H85.3989L83.1949 363.52H134.658L136.862 384.875Z" fill="#E0E0E0"/>
<path d="M270.19 433.106C388.195 433.106 483.857 427.153 483.857 419.809C483.857 412.466 388.195 406.512 270.19 406.512C152.185 406.512 56.5236 412.466 56.5236 419.809C56.5236 427.153 152.185 433.106 270.19 433.106Z" fill="#F5F5F5"/>
<path d="M413.447 418.14H408.169L407.012 332.296H414.604L413.447 418.14Z" fill="#263238"/>
<path opacity="0.5" d="M413.447 418.14H408.169L407.012 332.296H414.604L413.447 418.14Z" fill="white"/>
<path d="M366.822 418.14H361.533L360.387 332.296H367.979L366.822 418.14Z" fill="#263238"/>
<path opacity="0.5" d="M366.822 418.14H361.533L360.387 332.296H367.979L366.822 418.14Z" fill="white"/>
<path d="M356 418.14H350.722L349.565 332.296H357.157L356 418.14Z" fill="#263238"/>
<path opacity="0.5" d="M356 418.14H350.722L349.565 332.296H357.157L356 418.14Z" fill="white"/>
<path d="M309.389 418.14H304.1L302.954 332.296H310.546L309.389 418.14Z" fill="#263238"/>
<path opacity="0.5" d="M309.389 418.14H304.1L302.954 332.296H310.546L309.389 418.14Z" fill="white"/>
<path d="M388.11 334.27H302.429C301.502 334.27 300.583 334.075 299.726 333.697C298.869 333.318 298.09 332.764 297.434 332.065C296.778 331.365 296.258 330.535 295.903 329.622C295.548 328.708 295.365 327.729 295.365 326.74V316.709C295.368 314.714 296.114 312.802 297.438 311.392C298.763 309.983 300.558 309.191 302.429 309.191H378.291L384.826 242.917C385.27 239.035 387.012 235.455 389.733 232.831C392.453 230.208 395.969 228.717 399.637 228.633H431.473L423.87 253.371L416.927 308.78L412.045 324.262L388.11 334.27Z" fill="#407BFF"/>
<path opacity="0.2" d="M388.11 334.27H302.429C301.502 334.27 300.583 334.075 299.726 333.697C298.869 333.318 298.09 332.764 297.434 332.065C296.778 331.365 296.258 330.535 295.903 329.622C295.548 328.708 295.365 327.729 295.365 326.74V316.709C295.368 314.714 296.114 312.802 297.438 311.392C298.763 309.983 300.558 309.191 302.429 309.191H378.291L384.826 242.917C385.27 239.035 387.012 235.455 389.733 232.831C392.453 230.208 395.969 228.717 399.637 228.633H431.473L423.87 253.371L416.927 308.78L412.045 324.262L388.11 334.27Z" fill="black"/>
<path d="M434.118 228.634H427.759C424.093 228.718 420.578 230.209 417.86 232.833C415.141 235.457 413.401 239.037 412.959 242.918L406.425 309.192H359.678C357.808 309.195 356.016 309.988 354.694 311.397C353.372 312.806 352.628 314.717 352.625 316.71V326.741C352.625 328.736 353.368 330.65 354.69 332.061C356.012 333.473 357.806 334.268 359.678 334.271H416.232C418.379 334.272 420.451 333.424 422.046 331.893C423.642 330.361 424.649 328.254 424.872 325.978L432.277 250.87C435.243 250.806 438.078 249.557 440.221 247.371C442.364 245.184 443.659 242.22 443.848 239.065C443.872 237.693 443.637 236.33 443.157 235.057C442.677 233.784 441.962 232.626 441.055 231.654C440.147 230.681 439.065 229.912 437.874 229.393C436.682 228.874 435.405 228.616 434.118 228.634Z" fill="#407BFF"/>
<path d="M311.215 382.678L314.884 408.239L322.455 407.546L321.397 381.75L311.215 382.678Z" fill="#EBB376"/>
<path d="M322.729 397.55C322.729 397.55 323.093 404.151 324.581 407.44C326.069 410.729 328.129 415.099 323.093 415.581C320.118 415.863 314.916 417.178 309.219 417.766C305.285 418.165 299.896 417.766 299.709 415.546C299.488 412.973 313.44 407.581 313.385 405.103C313.329 402.624 312.701 398.349 312.701 398.349L322.729 397.55Z" fill="#263238"/>
<path opacity="0.1" d="M322.729 397.55C322.729 397.55 323.093 404.151 324.581 407.44C326.069 410.729 328.129 415.099 323.093 415.581C320.118 415.863 314.916 417.178 309.219 417.766C305.285 418.165 299.896 417.766 299.709 415.546C299.488 412.973 313.44 407.581 313.385 405.103C313.329 402.624 312.701 398.349 312.701 398.349L322.729 397.55Z" fill="white"/>
<path d="M360.552 261.088L358.503 279.272C358.503 279.272 300.284 284.722 296.967 300.24C293.826 314.993 311.006 389.901 311.006 389.901L322.633 388.668C322.633 388.668 324.253 330.746 319.161 310.083C319.161 310.083 363.418 309.731 378.173 310.083C384.785 310.248 401.745 310.013 397.547 289.456C392.764 265.963 387.706 261.088 387.706 261.088L387.529 250.798H361.081L360.552 261.088Z" fill="#407BFF"/>
<path opacity="0.2" d="M360.552 261.088L358.503 279.272C358.503 279.272 300.284 284.722 296.967 300.24C293.826 314.993 311.006 389.901 311.006 389.901L322.633 388.668C322.633 388.668 324.253 330.746 319.161 310.083C319.161 310.083 363.418 309.731 378.173 310.083C384.785 310.248 401.745 310.013 397.547 289.456C392.764 265.963 387.706 261.088 387.706 261.088L387.529 250.798H361.081L360.552 261.088Z" fill="white"/>
<path d="M309.878 390.22L310.848 393.262C310.939 393.536 311.113 393.77 311.342 393.927C311.572 394.084 311.843 394.156 312.115 394.131L322.264 393.133C322.548 393.106 322.814 392.974 323.016 392.759C323.217 392.545 323.341 392.261 323.366 391.958L323.554 388.81C323.562 388.624 323.533 388.438 323.468 388.264C323.404 388.091 323.305 387.934 323.178 387.805C323.052 387.676 322.901 387.577 322.736 387.515C322.57 387.454 322.395 387.431 322.22 387.448L310.914 388.552C310.735 388.571 310.563 388.632 310.409 388.731C310.255 388.83 310.124 388.964 310.025 389.124C309.926 389.284 309.861 389.465 309.836 389.654C309.81 389.844 309.825 390.037 309.878 390.22Z" fill="#407BFF"/>
<path opacity="0.6" d="M309.878 390.22L310.848 393.262C310.939 393.536 311.113 393.77 311.342 393.927C311.572 394.084 311.843 394.156 312.115 394.131L322.264 393.133C322.548 393.106 322.814 392.974 323.016 392.759C323.217 392.545 323.341 392.261 323.366 391.958L323.554 388.81C323.562 388.624 323.533 388.438 323.468 388.264C323.404 388.091 323.305 387.934 323.178 387.805C323.052 387.676 322.901 387.577 322.736 387.515C322.57 387.454 322.395 387.431 322.22 387.448L310.914 388.552C310.735 388.571 310.563 388.632 310.409 388.731C310.255 388.83 310.124 388.964 310.025 389.124C309.926 389.284 309.861 389.465 309.836 389.654C309.81 389.844 309.825 390.037 309.878 390.22Z" fill="white"/>
<path d="M333.528 382.162L335.148 407.969H342.741L343.755 382.162H333.528Z" fill="#EBB376"/>
<path d="M343.608 400.146C343.608 400.146 343.41 406.759 344.622 410.177C345.834 413.595 347.52 418.141 342.418 418.141C339.442 418.141 334.164 418.212 328.533 417.765C324.587 417.46 319.133 418.141 319.133 415.874C319.133 413.29 333.888 409.096 334.032 406.63C334.175 404.163 334.032 400.005 334.032 400.005L343.608 400.146Z" fill="#263238"/>
<path d="M369.668 261.089L367.806 279.273C367.806 279.273 331.594 284.524 325.787 293.768C319.979 303.013 333.622 393.978 333.622 393.978H343.749C350.979 343.468 347.221 310.014 347.221 310.014H392.634C421.562 310.014 395.819 261.089 395.819 261.089L395.929 250.282L369.162 251.927L369.668 261.089Z" fill="#407BFF"/>
<path opacity="0.3" d="M369.668 261.089L367.806 279.273C367.806 279.273 331.594 284.524 325.787 293.768C319.979 303.013 333.622 393.978 333.622 393.978H343.749C350.979 343.468 347.221 310.014 347.221 310.014H392.634C421.562 310.014 395.819 261.089 395.819 261.089L395.929 250.282L369.162 251.927L369.668 261.089Z" fill="white"/>
<path d="M331.766 392.215L332.526 395.54C332.585 395.802 332.726 396.036 332.927 396.201C333.127 396.365 333.375 396.451 333.628 396.444H343.712C343.968 396.45 344.218 396.361 344.419 396.191C344.62 396.022 344.76 395.783 344.814 395.516L345.486 392.18C345.523 392.006 345.522 391.825 345.483 391.651C345.445 391.477 345.37 391.315 345.263 391.177C345.157 391.038 345.023 390.928 344.87 390.853C344.718 390.779 344.551 390.743 344.384 390.747H332.857C332.687 390.743 332.518 390.781 332.364 390.858C332.21 390.936 332.075 391.05 331.969 391.192C331.863 391.334 331.79 391.501 331.755 391.678C331.72 391.856 331.723 392.04 331.766 392.215Z" fill="#407BFF"/>
<path opacity="0.6" d="M331.766 392.215L332.526 395.54C332.585 395.802 332.726 396.036 332.927 396.201C333.127 396.365 333.375 396.451 333.628 396.444H343.712C343.968 396.45 344.218 396.361 344.419 396.191C344.62 396.022 344.76 395.783 344.814 395.516L345.486 392.18C345.523 392.006 345.522 391.825 345.483 391.651C345.445 391.477 345.37 391.315 345.263 391.177C345.157 391.038 345.023 390.928 344.87 390.853C344.718 390.779 344.551 390.743 344.384 390.747H332.857C332.687 390.743 332.518 390.781 332.364 390.858C332.21 390.936 332.075 391.05 331.969 391.192C331.863 391.334 331.79 391.501 331.755 391.678C331.72 391.856 331.723 392.04 331.766 392.215Z" fill="white"/>
<path d="M317.666 250.719L309.467 252.422L301.753 250.014C300.685 249.86 299.597 250 298.593 250.421C297.59 250.843 296.705 251.532 296.023 252.422C294.906 253.845 294.297 255.642 294.304 257.497V257.814H310.162L318.768 256.581L317.666 250.719Z" fill="#EBB376"/>
<path d="M361.972 200.173C361.96 199.771 361.835 199.381 361.616 199.054C361.396 198.726 361.09 198.475 360.737 198.332C360.384 198.189 359.999 198.16 359.631 198.25C359.262 198.339 358.927 198.542 358.666 198.834C356.022 201.607 352.22 204.86 350.445 222.328C348.164 244.822 312.977 250.402 312.977 250.402L314.652 258.624C314.652 258.624 340.572 259.564 351.305 247.63C365.19 232.3 363.163 209.289 361.972 200.173Z" fill="#407BFF"/>
<path opacity="0.2" d="M361.972 200.173C361.96 199.771 361.835 199.381 361.616 199.054C361.396 198.726 361.09 198.475 360.737 198.332C360.384 198.189 359.999 198.16 359.631 198.25C359.262 198.339 358.927 198.542 358.666 198.834C356.022 201.607 352.22 204.86 350.445 222.328C348.164 244.822 312.977 250.402 312.977 250.402L314.652 258.624C314.652 258.624 340.572 259.564 351.305 247.63C365.19 232.3 363.163 209.289 361.972 200.173Z" fill="white"/>
<path d="M393.512 163.863C390.328 141.11 372.354 149.309 372.354 149.309C360.739 153.773 364.64 169.149 364.64 177.501C364.64 185.853 363.648 188.743 363.648 188.743C364.993 188.425 366.238 188.155 367.439 187.897L367.858 185.277L368.585 187.627C378.349 185.642 383.616 185.665 386.459 186.299C387.259 184.748 387.835 183.077 388.168 181.342C388.168 181.342 389.556 182.305 388.168 186.863C389.854 187.674 389.777 188.719 389.777 188.719C389.777 188.719 396.719 186.616 393.512 163.863Z" fill="#263238"/>
<path d="M404.549 197.53L362.551 197.001C361.57 196.985 360.616 197.341 359.859 198.006C359.102 198.671 358.591 199.601 358.419 200.631C353.46 229.856 356.843 228.823 356.843 228.823L358.959 264.591H363.653C365.027 264.592 366.359 264.086 367.421 263.159C368.484 262.231 369.213 260.94 369.483 259.505L369.957 256.991L371.202 260.515C371.625 261.711 372.377 262.743 373.361 263.475C374.344 264.207 375.513 264.604 376.712 264.614H398.146C395.655 237.151 403.821 210.651 406.664 200.748C406.776 200.386 406.807 200.001 406.754 199.623C406.702 199.246 406.567 198.887 406.362 198.575C406.157 198.262 405.886 198.005 405.571 197.824C405.256 197.642 404.906 197.542 404.549 197.53Z" fill="#407BFF"/>
<path opacity="0.4" d="M404.549 197.53L362.551 197.001C361.57 196.985 360.616 197.341 359.859 198.006C359.102 198.671 358.591 199.601 358.419 200.631C353.46 229.856 356.843 228.823 356.843 228.823L358.959 264.591H363.653C365.027 264.592 366.359 264.086 367.421 263.159C368.484 262.231 369.213 260.94 369.483 259.505L369.957 256.991L371.202 260.515C371.625 261.711 372.377 262.743 373.361 263.475C374.344 264.207 375.513 264.604 376.712 264.614H398.146C395.655 237.151 403.821 210.651 406.664 200.748C406.776 200.386 406.807 200.001 406.754 199.623C406.702 199.246 406.567 198.887 406.362 198.575C406.157 198.262 405.886 198.005 405.571 197.824C405.256 197.642 404.906 197.542 404.549 197.53Z" fill="white"/>
<path d="M311.86 250.273L313.414 258.942C313.469 259.238 313.621 259.503 313.843 259.691C314.066 259.878 314.343 259.975 314.626 259.964L316.191 259.893C316.355 259.885 316.515 259.841 316.662 259.762C316.809 259.684 316.938 259.574 317.042 259.438C317.146 259.303 317.222 259.146 317.265 258.978C317.309 258.809 317.318 258.633 317.293 258.46L316.004 249.227C315.98 249.045 315.919 248.871 315.826 248.717C315.732 248.563 315.608 248.433 315.462 248.335C315.316 248.238 315.151 248.176 314.98 248.153C314.809 248.131 314.636 248.148 314.472 248.205L312.632 248.839C312.364 248.941 312.139 249.141 311.997 249.404C311.856 249.667 311.807 249.975 311.86 250.273Z" fill="#407BFF"/>
<path opacity="0.6" d="M311.86 250.273L313.414 258.942C313.469 259.238 313.621 259.503 313.843 259.691C314.066 259.878 314.343 259.975 314.626 259.964L316.191 259.893C316.355 259.885 316.515 259.841 316.662 259.762C316.809 259.684 316.938 259.574 317.042 259.438C317.146 259.303 317.222 259.146 317.265 258.978C317.309 258.809 317.318 258.633 317.293 258.46L316.004 249.227C315.98 249.045 315.919 248.871 315.826 248.717C315.732 248.563 315.608 248.433 315.462 248.335C315.316 248.238 315.151 248.176 314.98 248.153C314.809 248.131 314.636 248.148 314.472 248.205L312.632 248.839C312.364 248.941 312.139 249.141 311.997 249.404C311.856 249.667 311.807 249.975 311.86 250.273Z" fill="white"/>
<path d="M384.582 175.799C383.965 181.79 383.767 192.668 387.954 196.239C387.954 196.239 386.356 202.288 375.59 203.416C367.942 199.821 370.785 197.824 370.785 197.824C376.813 195.651 377.397 190.835 376.031 186.36L384.582 175.799Z" fill="#EBB376"/>
<path opacity="0.1" d="M383.64 182.456L381.436 181.845L378.703 183.02L376.014 186.333C376.375 187.47 376.579 188.657 376.62 189.857C382.549 188.893 383.64 182.456 383.64 182.456Z" fill="black"/>
<path d="M388.531 162.559C388.796 172.438 389.115 176.655 384.895 182.105C378.536 190.328 367.097 188.566 364.056 178.969C361.323 170.335 361.334 155.64 370.018 150.848C371.932 149.784 374.07 149.259 376.228 149.324C378.386 149.389 380.492 150.041 382.347 151.218C384.202 152.395 385.744 154.058 386.827 156.049C387.909 158.04 388.496 160.293 388.531 162.594V162.559Z" fill="#EBB376"/>
<path d="M391.377 170.112C391.023 171.986 389.984 173.634 388.49 174.693C386.496 176.079 384.787 174.364 384.743 171.956C384.743 169.806 385.702 166.482 387.983 166.083C388.482 166.007 388.991 166.065 389.465 166.249C389.938 166.434 390.361 166.74 390.697 167.141C391.033 167.542 391.271 168.025 391.389 168.547C391.508 169.07 391.504 169.615 391.377 170.135V170.112Z" fill="#EBB376"/>
<path d="M368.694 168.635C368.187 170.521 367.446 172.327 366.49 174.003C366.894 174.259 367.347 174.417 367.816 174.466C368.284 174.515 368.757 174.453 369.2 174.285L368.694 168.635Z" fill="#D58745"/>
<path d="M374.919 162.983C374.983 162.962 375.041 162.921 375.084 162.865C375.151 162.791 375.188 162.692 375.188 162.589C375.188 162.486 375.151 162.387 375.084 162.313C374.588 161.806 373.984 161.435 373.324 161.23C372.664 161.026 371.967 160.994 371.293 161.138C371.199 161.166 371.118 161.232 371.069 161.322C371.019 161.412 371.005 161.519 371.028 161.62C371.052 161.72 371.111 161.805 371.194 161.858C371.277 161.911 371.376 161.927 371.469 161.902C372.03 161.797 372.605 161.835 373.149 162.012C373.693 162.19 374.19 162.502 374.599 162.924C374.645 162.958 374.697 162.981 374.753 162.991C374.808 163.001 374.864 162.998 374.919 162.983Z" fill="#2E353A"/>
<path d="M361.982 163.862C361.918 163.85 361.858 163.821 361.806 163.78C361.767 163.748 361.736 163.708 361.712 163.663C361.689 163.618 361.674 163.568 361.669 163.517C361.664 163.465 361.668 163.413 361.682 163.363C361.696 163.314 361.72 163.268 361.751 163.228C362.175 162.648 362.724 162.186 363.351 161.879C363.978 161.572 364.665 161.431 365.354 161.466C365.45 161.481 365.536 161.534 365.596 161.615C365.655 161.696 365.683 161.798 365.674 161.901C365.663 162.002 365.615 162.094 365.541 162.157C365.466 162.221 365.372 162.251 365.277 162.241C364.707 162.222 364.142 162.348 363.626 162.607C363.111 162.866 362.661 163.252 362.313 163.733C362.273 163.784 362.221 163.822 362.163 163.845C362.105 163.868 362.043 163.874 361.982 163.862Z" fill="#2E353A"/>
<path d="M373.862 166.801C373.939 167.6 373.586 168.281 373.09 168.34C372.594 168.399 372.154 167.788 372.087 166.977C372.021 166.167 372.363 165.497 372.848 165.439C373.333 165.38 373.796 165.991 373.862 166.801Z" fill="#2E353A"/>
<path d="M365.388 167.624C365.465 168.411 365.112 169.104 364.627 169.151C364.142 169.198 363.691 168.587 363.614 167.788C363.536 166.989 363.889 166.308 364.374 166.261C364.859 166.214 365.333 166.802 365.388 167.624Z" fill="#2E353A"/>
<path d="M364.583 166.273L362.742 165.897C362.742 165.897 363.789 167.307 364.583 166.273Z" fill="#2E353A"/>
<path d="M373.076 165.449L371.236 165.073C371.236 165.073 372.283 166.483 373.076 165.449Z" fill="#2E353A"/>
<path d="M368.738 177.455C369.867 177.605 371.014 177.479 372.091 177.087C373.168 176.694 374.147 176.045 374.953 175.188C374.953 175.188 377.708 180.533 370.281 181.402C370.162 179.948 369.623 178.569 368.738 177.455Z" fill="#263238"/>
<path d="M369.394 177.511L369.934 178.686C369.934 178.686 373.438 178.686 375.3 176.113C375.212 175.777 375.094 175.451 374.948 175.138C374.226 175.921 373.36 176.536 372.404 176.944C371.448 177.353 370.423 177.546 369.394 177.511Z" fill="white"/>
<path d="M370.785 181.317C374.422 180.753 375.369 178.968 375.447 177.535C371.854 178.545 370.983 180.46 370.785 181.317Z" fill="#DE5753"/>
<path d="M372.355 154.7C371.685 156.025 370.731 157.163 369.57 158.02C368.41 158.878 367.075 159.43 365.676 159.634C360.673 160.562 362.459 174.481 362.459 174.481C362.459 174.481 351.648 146.383 375.187 148.38L372.355 154.7Z" fill="#263238"/>
<path d="M375.775 148.922C375.383 148.826 374.977 148.819 374.583 148.901C374.189 148.982 373.815 149.151 373.485 149.395C373.155 149.639 372.877 149.954 372.668 150.32C372.458 150.685 372.323 151.093 372.27 151.518C371.995 153.867 372.458 156.804 376.017 158.025C382.31 160.175 381.726 167.27 381.726 167.27L382.828 162.007C382.828 162.007 383.18 169.525 386.729 168.632C390.277 167.74 390.63 160.645 390.63 160.645L384.767 151.083L375.775 148.922Z" fill="#263238"/>
<path d="M371.788 195.897C371.868 195.862 371.957 195.851 372.043 195.867C372.129 195.882 372.21 195.922 372.276 195.982C372.342 196.043 372.391 196.122 372.418 196.211C372.444 196.299 372.447 196.394 372.427 196.485C372.008 198.423 371.644 202.628 376.438 202.628C381.232 202.628 385.541 198.458 387.381 196.449C387.661 196.143 388.019 195.932 388.411 195.842C388.803 195.753 389.212 195.788 389.585 195.944L390.841 196.473C390.974 196.529 391.093 196.616 391.191 196.726C391.289 196.837 391.363 196.969 391.408 197.113C391.453 197.257 391.468 197.41 391.452 197.562C391.436 197.713 391.389 197.858 391.315 197.988C389.188 201.747 381.562 213.728 375.402 204.014C375.402 204.014 371.821 209.887 369.617 204.637C368.806 202.653 368.632 200.44 369.121 198.34C369.225 197.876 369.434 197.446 369.73 197.088C370.026 196.73 370.399 196.454 370.818 196.285L371.788 195.897Z" fill="#407BFF"/>
<path opacity="0.6" d="M371.788 195.897C371.868 195.862 371.957 195.851 372.043 195.867C372.129 195.882 372.21 195.922 372.276 195.982C372.342 196.043 372.391 196.122 372.418 196.211C372.444 196.299 372.447 196.394 372.427 196.485C372.008 198.423 371.644 202.628 376.438 202.628C381.232 202.628 385.541 198.458 387.381 196.449C387.661 196.143 388.019 195.932 388.411 195.842C388.803 195.753 389.212 195.788 389.585 195.944L390.841 196.473C390.974 196.529 391.093 196.616 391.191 196.726C391.289 196.837 391.363 196.969 391.408 197.113C391.453 197.257 391.468 197.41 391.452 197.562C391.436 197.713 391.389 197.858 391.315 197.988C389.188 201.747 381.562 213.728 375.402 204.014C375.402 204.014 371.821 209.887 369.617 204.637C368.806 202.653 368.632 200.44 369.121 198.34C369.225 197.876 369.434 197.446 369.73 197.088C370.026 196.73 370.399 196.454 370.818 196.285L371.788 195.897Z" fill="white"/>
<path d="M350.222 203.004C350.371 202.882 350.541 202.793 350.723 202.745C350.905 202.696 351.094 202.688 351.279 202.72C351.464 202.753 351.641 202.825 351.798 202.934C351.955 203.042 352.09 203.184 352.194 203.351C352.298 203.517 352.369 203.704 352.402 203.901C352.434 204.098 352.429 204.3 352.386 204.494C352.342 204.689 352.262 204.871 352.149 205.031C352.037 205.191 351.895 205.325 351.732 205.423L331.797 219.519C331.648 219.624 331.481 219.697 331.305 219.733C331.13 219.769 330.95 219.768 330.775 219.73C330.421 219.653 330.111 219.429 329.912 219.108C329.713 218.787 329.642 218.395 329.715 218.019C329.787 217.642 329.997 217.311 330.298 217.099L350.222 203.004Z" fill="#263238"/>
<path opacity="0.6" d="M350.222 203.004C350.371 202.882 350.541 202.793 350.723 202.745C350.905 202.696 351.094 202.688 351.279 202.72C351.464 202.753 351.641 202.825 351.798 202.934C351.955 203.042 352.09 203.184 352.194 203.351C352.298 203.517 352.369 203.704 352.402 203.901C352.434 204.098 352.429 204.3 352.386 204.494C352.342 204.689 352.262 204.871 352.149 205.031C352.037 205.191 351.895 205.325 351.732 205.423L331.797 219.519C331.648 219.624 331.481 219.697 331.305 219.733C331.13 219.769 330.95 219.768 330.775 219.73C330.421 219.653 330.111 219.429 329.912 219.108C329.713 218.787 329.642 218.395 329.715 218.019C329.787 217.642 329.997 217.311 330.298 217.099L350.222 203.004Z" fill="white"/>
<path d="M330.3 217.063C329.669 217.761 329.134 218.552 328.713 219.412C328.674 219.486 328.654 219.571 328.657 219.656C328.66 219.741 328.685 219.824 328.73 219.895C328.775 219.966 328.837 220.022 328.91 220.057C328.983 220.092 329.064 220.104 329.143 220.093C330.052 220.021 330.946 219.812 331.799 219.471C331.948 219.366 332.076 219.231 332.176 219.073C332.276 218.915 332.346 218.738 332.382 218.551C332.418 218.365 332.419 218.173 332.385 217.986C332.351 217.799 332.283 217.621 332.185 217.462C332.086 217.303 331.959 217.166 331.811 217.06C331.663 216.953 331.497 216.879 331.322 216.84C331.147 216.802 330.967 216.801 330.792 216.837C330.616 216.873 330.449 216.946 330.3 217.051V217.063Z" fill="#263238"/>
<path opacity="0.8" d="M330.3 217.063C329.669 217.761 329.134 218.552 328.713 219.412C328.674 219.486 328.654 219.571 328.657 219.656C328.66 219.741 328.685 219.824 328.73 219.895C328.775 219.966 328.837 220.022 328.91 220.057C328.983 220.092 329.064 220.104 329.143 220.093C330.052 220.021 330.946 219.812 331.799 219.471C331.948 219.366 332.076 219.231 332.176 219.073C332.276 218.915 332.346 218.738 332.382 218.551C332.418 218.365 332.419 218.173 332.385 217.986C332.351 217.799 332.283 217.621 332.185 217.462C332.086 217.303 331.959 217.166 331.811 217.06C331.663 216.953 331.497 216.879 331.322 216.84C331.147 216.802 330.967 216.801 330.792 216.837C330.616 216.873 330.449 216.946 330.3 217.051V217.063Z" fill="white"/>
<path d="M357.828 226.449L349.134 219.953L347.128 211.06C346.942 210.202 346.534 209.416 345.949 208.793C345.365 208.17 344.628 207.734 343.822 207.537C342.778 207.284 341.683 207.445 340.742 207.989C339.801 208.534 339.078 209.425 338.709 210.497L338.037 212.423C337.856 212.946 337.763 213.499 337.761 214.056V215.689C337.761 216.863 338.174 217.994 338.918 218.86L340.108 220.246C340.428 220.616 340.799 220.929 341.21 221.174L346.368 224.24L354.511 232.909L357.828 226.449Z" fill="#EBB376"/>
<path d="M402.288 200.113C402.484 199.525 402.82 199.002 403.263 198.596C403.707 198.189 404.242 197.912 404.816 197.794C405.391 197.675 405.984 197.718 406.538 197.919C407.092 198.12 407.587 198.471 407.974 198.939C409.815 201.358 410.873 205.986 407.732 215.114C401.462 233.262 391.478 247.511 378.97 247.511C364.137 247.511 349.128 229.209 349.128 229.209L354.329 222.678C354.329 222.678 369.393 233.567 379.444 233.567C385.185 233.614 394.508 221.727 402.288 200.113Z" fill="#407BFF"/>
<path opacity="0.2" d="M402.288 200.113C402.484 199.525 402.82 199.002 403.263 198.596C403.707 198.189 404.242 197.912 404.816 197.794C405.391 197.675 405.984 197.718 406.538 197.919C407.092 198.12 407.587 198.471 407.974 198.939C409.815 201.358 410.873 205.986 407.732 215.114C401.462 233.262 391.478 247.511 378.97 247.511C364.137 247.511 349.128 229.209 349.128 229.209L354.329 222.678C354.329 222.678 369.393 233.567 379.444 233.567C385.185 233.614 394.508 221.727 402.288 200.113Z" fill="white"/>
<path d="M347.829 228.542L353.691 221.001C353.79 220.874 353.931 220.793 354.085 220.773C354.238 220.753 354.393 220.797 354.518 220.895L357.03 222.845C357.098 222.897 357.155 222.963 357.197 223.04C357.24 223.116 357.267 223.201 357.278 223.289C357.288 223.378 357.281 223.467 357.258 223.552C357.234 223.638 357.194 223.717 357.14 223.785L350.528 232.254C350.468 232.333 350.391 232.396 350.303 232.438C350.215 232.479 350.12 232.498 350.024 232.492C349.928 232.486 349.835 232.456 349.752 232.405C349.67 232.353 349.599 232.281 349.548 232.195L347.762 229.317C347.695 229.198 347.664 229.058 347.676 228.918C347.688 228.779 347.742 228.647 347.829 228.542Z" fill="#407BFF"/>
<path opacity="0.6" d="M347.829 228.542L353.691 221.001C353.79 220.874 353.931 220.793 354.085 220.773C354.238 220.753 354.393 220.797 354.518 220.895L357.03 222.845C357.098 222.897 357.155 222.963 357.197 223.04C357.24 223.116 357.267 223.201 357.278 223.289C357.288 223.378 357.281 223.467 357.258 223.552C357.234 223.638 357.194 223.717 357.14 223.785L350.528 232.254C350.468 232.333 350.391 232.396 350.303 232.438C350.215 232.479 350.12 232.498 350.024 232.492C349.928 232.486 349.835 232.456 349.752 232.405C349.67 232.353 349.599 232.281 349.548 232.195L347.762 229.317C347.695 229.198 347.664 229.058 347.676 228.918C347.688 228.779 347.742 228.647 347.829 228.542Z" fill="white"/>
<path d="M374.889 148.287H372.829V148.369C376.62 148.793 380.131 150.698 382.682 153.718C385.234 156.737 386.647 160.657 386.648 164.721H390.306C390.303 160.363 388.678 156.185 385.788 153.104C382.897 150.023 378.977 148.29 374.889 148.287Z" fill="#263238"/>
<path opacity="0.6" d="M374.889 148.287H372.829V148.369C376.62 148.793 380.131 150.698 382.682 153.718C385.234 156.737 386.647 160.657 386.648 164.721H390.306C390.303 160.363 388.678 156.185 385.788 153.104C382.897 150.023 378.977 148.29 374.889 148.287Z" fill="white"/>
<path d="M388.529 177.548C391.292 177.548 393.532 174.356 393.532 170.418C393.532 166.48 391.292 163.288 388.529 163.288C385.765 163.288 383.526 166.48 383.526 170.418C383.526 174.356 385.765 177.548 388.529 177.548Z" fill="#407BFF"/>
<path d="M394.121 170.416C394.121 173.6 393.217 175.115 390.815 175.115C388.412 175.115 387.509 173.623 387.509 170.416C387.509 167.209 388.423 165.718 390.815 165.718C393.206 165.718 394.121 167.221 394.121 170.416Z" fill="#263238"/>
<path opacity="0.5" d="M394.121 170.416C394.121 173.6 393.217 175.115 390.815 175.115C388.412 175.115 387.509 173.623 387.509 170.416C387.509 167.209 388.423 165.718 390.815 165.718C393.206 165.718 394.121 167.221 394.121 170.416Z" fill="white"/>
<path d="M391.528 174.656C393.172 174.656 394.504 172.758 394.504 170.416C394.504 168.074 393.172 166.175 391.528 166.175C389.885 166.175 388.553 168.074 388.553 170.416C388.553 172.758 389.885 174.656 391.528 174.656Z" fill="#263238"/>
<path opacity="0.7" d="M391.528 174.656C393.172 174.656 394.504 172.758 394.504 170.416C394.504 168.074 393.172 166.175 391.528 166.175C389.885 166.175 388.553 168.074 388.553 170.416C388.553 172.758 389.885 174.656 391.528 174.656Z" fill="white"/>
<path d="M187.424 418.143H182.146L179.831 270.958H189.738L187.424 418.143Z" fill="#263238"/>
<path opacity="0.7" d="M187.424 418.143H182.146L179.831 270.958H189.738L187.424 418.143Z" fill="white"/>
<path d="M245.725 418.143H240.435L238.121 270.958H248.039L245.725 418.143Z" fill="#263238"/>
<path opacity="0.7" d="M245.725 418.143H240.435L238.121 270.958H248.039L245.725 418.143Z" fill="white"/>
<path d="M284.447 268.495H184.782V280.007H284.447V268.495Z" fill="#263238"/>
<path opacity="0.5" d="M284.447 268.495H184.782V280.007H284.447V268.495Z" fill="white"/>
<path d="M342.901 268.495H284.451V280.007H342.901V268.495Z" fill="#263238"/>
<path opacity="0.5" d="M342.901 268.495H284.451V280.007H342.901V268.495Z" fill="white"/>
<path d="M345.394 418.143H340.104L337.79 270.958H347.697L345.394 418.143Z" fill="#263238"/>
<path opacity="0.7" d="M345.394 418.143H340.104L337.79 270.958H347.697L345.394 418.143Z" fill="white"/>
<path d="M350.827 261.093H273.004C271.391 261.093 270.084 262.486 270.084 264.206V267.847C270.084 269.566 271.391 270.96 273.004 270.96H350.827C352.44 270.96 353.747 269.566 353.747 267.847V264.206C353.747 262.486 352.44 261.093 350.827 261.093Z" fill="#263238"/>
<path d="M280.188 261.093H174.539C172.926 261.093 171.619 262.486 171.619 264.206V267.847C171.619 269.566 172.926 270.96 174.539 270.96H280.188C281.801 270.96 283.108 269.566 283.108 267.847V264.206C283.108 262.486 281.801 261.093 280.188 261.093Z" fill="#263238"/>
<path opacity="0.2" d="M280.188 261.093H174.539C172.926 261.093 171.619 262.486 171.619 264.206V267.847C171.619 269.566 172.926 270.96 174.539 270.96H280.188C281.801 270.96 283.108 269.566 283.108 267.847V264.206C283.108 262.486 281.801 261.093 280.188 261.093Z" fill="white"/>
<path d="M287.093 418.143H281.814L279.5 270.958H289.407L287.093 418.143Z" fill="#263238"/>
<path opacity="0.7" d="M287.093 418.143H281.814L279.5 270.958H289.407L287.093 418.143Z" fill="white"/>
<path d="M284.308 261.102C283.899 261.102 283.506 260.929 283.217 260.621C282.928 260.312 282.765 259.894 282.765 259.458C282.765 259.022 282.928 258.603 283.217 258.295C283.506 257.986 283.899 257.813 284.308 257.813H326.349C326.758 257.813 327.151 257.986 327.44 258.295C327.729 258.603 327.892 259.022 327.892 259.458C327.892 259.894 327.729 260.312 327.44 260.621C327.151 260.929 326.758 261.102 326.349 261.102H284.308Z" fill="#407BFF"/>
<path d="M287.926 258.263L282.328 215.811C282.21 215.038 281.843 214.333 281.29 213.819C280.736 213.304 280.032 213.011 279.297 212.991H273.942V261.094H285.645C285.983 261.114 286.321 261.051 286.633 260.91C286.944 260.769 287.221 260.553 287.442 260.279C287.662 260.005 287.821 259.681 287.905 259.331C287.989 258.981 287.996 258.616 287.926 258.263Z" fill="#407BFF"/>
<path d="M283.331 261.093H235.824C235.089 261.072 234.385 260.777 233.833 260.26C233.281 259.743 232.917 259.035 232.804 258.262L227.206 215.81C227.138 215.457 227.147 215.093 227.232 214.745C227.317 214.397 227.475 214.074 227.696 213.802C227.916 213.529 228.192 213.314 228.503 213.174C228.813 213.033 229.15 212.97 229.487 212.99H277.016C277.75 213.013 278.453 213.306 279.006 213.82C279.559 214.335 279.927 215.038 280.047 215.81L285.645 258.262C285.716 258.618 285.708 258.987 285.622 259.339C285.537 259.692 285.375 260.018 285.151 260.293C284.926 260.567 284.645 260.782 284.329 260.921C284.013 261.06 283.672 261.119 283.331 261.093Z" fill="#407BFF"/>
<path opacity="0.7" d="M283.331 261.093H235.824C235.089 261.072 234.385 260.777 233.833 260.26C233.281 259.743 232.917 259.035 232.804 258.262L227.206 215.81C227.138 215.457 227.147 215.093 227.232 214.745C227.317 214.397 227.475 214.074 227.696 213.802C227.916 213.529 228.192 213.314 228.503 213.174C228.813 213.033 229.15 212.97 229.487 212.99H277.016C277.75 213.013 278.453 213.306 279.006 213.82C279.559 214.335 279.927 215.038 280.047 215.81L285.645 258.262C285.716 258.618 285.708 258.987 285.622 259.339C285.537 259.692 285.375 260.018 285.151 260.293C284.926 260.567 284.645 260.782 284.329 260.921C284.013 261.06 283.672 261.119 283.331 261.093Z" fill="white"/>
<path opacity="0.7" d="M258.71 235.886C258.764 236.207 258.75 236.537 258.67 236.852C258.589 237.167 258.444 237.458 258.245 237.706C258.045 237.953 257.796 238.15 257.517 238.283C257.237 238.415 256.933 238.479 256.627 238.47C255.957 238.447 255.314 238.177 254.81 237.706C254.306 237.235 253.97 236.591 253.861 235.886C253.807 235.565 253.82 235.235 253.901 234.92C253.981 234.605 254.127 234.314 254.326 234.066C254.525 233.819 254.774 233.622 255.054 233.49C255.334 233.357 255.638 233.293 255.944 233.302C256.615 233.32 257.26 233.589 257.765 234.061C258.27 234.533 258.604 235.179 258.71 235.886Z" fill="white"/>
<path d="M217.915 236.646H199.556C199.264 236.647 198.976 236.715 198.712 236.847C198.448 236.979 198.214 237.171 198.027 237.409C197.84 237.648 197.704 237.927 197.63 238.228C197.555 238.528 197.543 238.842 197.594 239.148V239.325C196.678 239.081 195.717 239.114 194.817 239.419C191.511 240.476 191.412 243.624 192.404 247.16C193.396 250.695 195.093 253.268 198.41 252.211C198.944 252.037 199.452 251.783 199.92 251.459C200.577 253.113 201.643 254.546 203.005 255.605V258.19H214.4V255.605C216.319 254.123 217.629 251.911 218.058 249.427L219.844 239.148C219.895 238.845 219.884 238.534 219.811 238.236C219.738 237.938 219.605 237.66 219.422 237.422C219.238 237.184 219.009 236.992 218.749 236.858C218.488 236.724 218.204 236.652 217.915 236.646ZM197.98 249.967C195.776 250.66 194.674 248.968 194.035 246.643C193.396 244.317 193.451 242.261 195.622 241.568C196.421 241.287 197.293 241.354 198.046 241.756L199.335 249.18C198.943 249.545 198.48 249.813 197.98 249.967Z" fill="#407BFF"/>
<path opacity="0.5" d="M217.915 236.646H199.556C199.264 236.647 198.976 236.715 198.712 236.847C198.448 236.979 198.214 237.171 198.027 237.409C197.84 237.648 197.704 237.927 197.63 238.228C197.555 238.528 197.543 238.842 197.594 239.148V239.325C196.678 239.081 195.717 239.114 194.817 239.419C191.511 240.476 191.412 243.624 192.404 247.16C193.396 250.695 195.093 253.268 198.41 252.211C198.944 252.037 199.452 251.783 199.92 251.459C200.577 253.113 201.643 254.546 203.005 255.605V258.19H214.4V255.605C216.319 254.123 217.629 251.911 218.058 249.427L219.844 239.148C219.895 238.845 219.884 238.534 219.811 238.236C219.738 237.938 219.605 237.66 219.422 237.422C219.238 237.184 219.009 236.992 218.749 236.858C218.488 236.724 218.204 236.652 217.915 236.646ZM197.98 249.967C195.776 250.66 194.674 248.968 194.035 246.643C193.396 244.317 193.451 242.261 195.622 241.568C196.421 241.287 197.293 241.354 198.046 241.756L199.335 249.18C198.943 249.545 198.48 249.813 197.98 249.967Z" fill="white"/>
<path d="M214.883 261.234H202.551C201.782 261.236 201.025 261.034 200.347 260.646L196.16 258.203C195.997 258.105 195.87 257.953 195.797 257.77C195.724 257.587 195.71 257.383 195.756 257.191C195.802 256.998 195.907 256.827 196.054 256.704C196.2 256.582 196.381 256.514 196.567 256.511H220.811C220.998 256.514 221.179 256.582 221.325 256.704C221.472 256.827 221.577 256.998 221.623 257.191C221.669 257.383 221.655 257.587 221.582 257.77C221.509 257.953 221.382 258.105 221.219 258.203L217.032 260.646C216.371 261.025 215.633 261.226 214.883 261.234Z" fill="#407BFF"/>
<path opacity="0.4" d="M214.883 261.234H202.551C201.782 261.236 201.025 261.034 200.347 260.646L196.16 258.203C195.997 258.105 195.87 257.953 195.797 257.77C195.724 257.587 195.71 257.383 195.756 257.191C195.802 256.998 195.907 256.827 196.054 256.704C196.2 256.582 196.381 256.514 196.567 256.511H220.811C220.998 256.514 221.179 256.582 221.325 256.704C221.472 256.827 221.577 256.998 221.623 257.191C221.669 257.383 221.655 257.587 221.582 257.77C221.509 257.953 221.382 258.105 221.219 258.203L217.032 260.646C216.371 261.025 215.633 261.226 214.883 261.234Z" fill="white"/>
<path d="M297.073 96.6612H224.176C220.986 96.6612 218.401 99.4169 218.401 102.816V164.592C218.401 167.991 220.986 170.747 224.176 170.747H297.073C300.262 170.747 302.847 167.991 302.847 164.592V102.816C302.847 99.4169 300.262 96.6612 297.073 96.6612Z" fill="#407BFF"/>
<path opacity="0.6" d="M297.073 96.6612H224.176C220.986 96.6612 218.401 99.4169 218.401 102.816V164.592C218.401 167.991 220.986 170.747 224.176 170.747H297.073C300.262 170.747 302.847 167.991 302.847 164.592V102.816C302.847 99.4169 300.262 96.6612 297.073 96.6612Z" fill="white"/>
<path d="M257.694 110.569C257.694 110.569 251.412 107.139 248.217 114.68C245.021 122.221 236.943 117.687 240.337 132.969C243.731 148.252 229.229 143.06 236.205 154.219C243.18 165.378 253.837 157.743 259.677 157.943C265.518 158.142 276.802 162.054 279.513 155.1C282.224 148.146 277.585 145.808 277.486 142.038C277.387 138.267 283.26 129.234 278.5 125.146C269.794 117.628 273.221 106.352 257.694 110.569Z" fill="#2E353A"/>
<path d="M259.665 149.442C267.224 149.442 273.351 141.085 273.351 130.777C273.351 120.468 267.224 112.111 259.665 112.111C252.106 112.111 245.978 120.468 245.978 130.777C245.978 141.085 252.106 149.442 259.665 149.442Z" fill="#B97964"/>
<path d="M260.594 131.622C260.921 133.341 261.474 135.001 262.236 136.556C261.86 136.754 261.448 136.862 261.03 136.872C260.611 136.882 260.195 136.794 259.811 136.614L260.594 131.622Z" fill="#A24E3F"/>
<path d="M254.565 131.68C254.565 132.362 254.819 132.937 255.237 132.972C255.656 133.008 256.02 132.467 256.064 131.798C256.108 131.128 255.799 130.553 255.392 130.529C254.984 130.506 254.565 131.011 254.565 131.68Z" fill="#2E353A"/>
<path d="M252.282 129.296C252.224 129.308 252.164 129.308 252.106 129.296C252.04 129.219 252.005 129.118 252.005 129.014C252.005 128.91 252.04 128.81 252.106 128.732C252.488 128.246 252.973 127.863 253.521 127.614C254.068 127.365 254.663 127.257 255.257 127.299C255.356 127.316 255.444 127.374 255.504 127.459C255.563 127.545 255.59 127.652 255.577 127.757C255.571 127.809 255.556 127.86 255.532 127.906C255.508 127.951 255.475 127.991 255.436 128.023C255.397 128.055 255.352 128.078 255.304 128.091C255.256 128.104 255.207 128.106 255.158 128.098C254.687 128.07 254.217 128.162 253.785 128.366C253.354 128.571 252.975 128.881 252.679 129.273C252.621 129.314 252.553 129.339 252.483 129.343C252.413 129.347 252.344 129.331 252.282 129.296Z" fill="#2E353A"/>
<path d="M265.995 131.68C265.995 132.362 265.731 132.937 265.312 132.972C264.893 133.008 264.53 132.467 264.486 131.798C264.441 131.128 264.75 130.553 265.169 130.529C265.588 130.506 265.951 131.011 265.995 131.68Z" fill="#2E353A"/>
<path d="M268.267 129.296C268.329 129.308 268.392 129.308 268.454 129.296C268.519 129.219 268.555 129.119 268.555 129.014C268.555 128.91 268.519 128.81 268.454 128.733C268.072 128.246 267.587 127.863 267.04 127.613C266.492 127.364 265.897 127.257 265.303 127.299C265.205 127.319 265.119 127.378 265.059 127.462C265 127.547 264.973 127.652 264.983 127.758C264.99 127.81 265.006 127.861 265.032 127.907C265.057 127.953 265.091 127.993 265.131 128.024C265.171 128.056 265.216 128.079 265.265 128.092C265.313 128.104 265.364 128.107 265.413 128.098C265.884 128.072 266.354 128.165 266.784 128.369C267.215 128.574 267.595 128.883 267.892 129.273C267.946 129.314 268.01 129.338 268.076 129.342C268.143 129.346 268.209 129.33 268.267 129.296Z" fill="#2E353A"/>
<path d="M260.606 142.038C260.975 142.036 261.344 142.001 261.708 141.933C261.759 141.921 261.805 141.89 261.836 141.844C261.866 141.798 261.88 141.742 261.873 141.686C261.869 141.658 261.86 141.631 261.846 141.607C261.832 141.583 261.814 141.562 261.792 141.546C261.771 141.529 261.746 141.518 261.72 141.511C261.695 141.505 261.668 141.505 261.642 141.51C260.807 141.678 259.947 141.639 259.128 141.394C258.31 141.15 257.556 140.707 256.925 140.1C256.886 140.061 256.835 140.04 256.782 140.04C256.729 140.04 256.677 140.061 256.639 140.1C256.619 140.12 256.604 140.144 256.593 140.17C256.583 140.196 256.577 140.224 256.577 140.253C256.577 140.281 256.583 140.31 256.593 140.336C256.604 140.362 256.619 140.386 256.639 140.406C257.711 141.479 259.134 142.065 260.606 142.038Z" fill="#2E353A"/>
<path d="M258.386 161.643C263.906 161.564 269.323 160.035 274.156 157.191C272.401 156.84 270.619 156.66 268.833 156.651C265.952 158.341 262.698 159.176 259.411 159.071C253.482 159.071 250.287 156.651 250.287 156.651C248.972 156.65 247.658 156.732 246.352 156.898C248.083 158.718 251.862 161.643 258.386 161.643Z" fill="#577AFB"/>
<path d="M267.289 158.741L269.791 157.05C268.504 156.847 267.282 156.315 266.231 155.499C263.002 152.927 264.754 146.36 264.754 146.36H255.487C255.266 150.295 255.365 153.772 253.283 155.405C252.053 156.415 250.558 156.99 249.007 157.05L252.313 159.152C252.103 159.646 254.517 160.574 254.517 160.574L263.718 161.126L265.482 159.951C265.482 159.951 267.796 159.481 267.289 158.741Z" fill="#B97964"/>
<path d="M250.298 156.652C250.298 156.652 253.493 159.072 259.422 159.072C262.709 159.177 265.963 158.341 268.844 156.652C268.844 156.652 287.215 156.264 287.215 170.748H234.131C234.131 170.748 231.751 156.652 250.298 156.652Z" fill="#407BFF"/>
<path d="M245.228 127.239C245.228 127.239 245.835 133.511 247.763 133.3C249.692 133.088 248.336 123.409 251.973 122.728C255.609 122.047 257.681 121.189 257.824 118.758C257.968 116.326 263.61 118.029 262.849 114.94C264.789 115.85 266.338 117.501 267.191 119.568C268.767 123.162 269.208 121.33 270.365 123.832C271.522 126.334 272.569 133.711 274.42 128.319C276.272 122.928 271.522 118.393 271.522 118.393L267.324 113.107L263.4 112.156L260.039 111.416H255.532L252.513 112.156L248.204 117.078L245.559 121.917L245.228 127.239Z" fill="#2E353A"/>
<path d="M247.55 131.701C248.585 133.839 248.387 136.294 247.109 137.187C245.83 138.079 243.946 137.046 242.921 134.908C241.896 132.77 242.084 130.315 243.362 129.422C244.64 128.529 246.525 129.563 247.55 131.701Z" fill="#B97964"/>
<path d="M271.025 131.701C269.989 133.839 270.199 136.294 271.477 137.187C272.755 138.079 274.629 137.046 275.665 134.908C276.701 132.77 276.502 130.315 275.213 129.422C273.924 128.529 272.061 129.563 271.025 131.701Z" fill="#B97964"/>
<path d="M245.589 133.336C245.313 133.412 245.075 133.598 244.925 133.856C244.775 134.115 244.725 134.425 244.785 134.722L245.347 138.564C245.363 138.665 245.416 138.755 245.495 138.814C245.573 138.874 245.671 138.898 245.765 138.881C245.86 138.863 245.945 138.807 246.001 138.723C246.057 138.639 246.079 138.536 246.063 138.434L245.666 135.768H245.898C246.163 135.678 246.39 135.489 246.536 135.237C246.683 134.985 246.74 134.685 246.698 134.391C246.655 134.098 246.516 133.83 246.304 133.637C246.093 133.443 245.824 133.337 245.545 133.336H245.589Z" fill="white"/>
<path d="M273.656 133.336C273.932 133.412 274.17 133.598 274.32 133.856C274.47 134.115 274.52 134.425 274.46 134.722L273.887 138.564C273.871 138.665 273.818 138.755 273.739 138.814C273.661 138.874 273.563 138.898 273.468 138.881C273.373 138.863 273.287 138.807 273.23 138.724C273.172 138.641 273.147 138.537 273.16 138.434L273.557 135.768H273.303C273.037 135.677 272.81 135.488 272.663 135.235C272.516 134.981 272.46 134.68 272.504 134.385C272.548 134.091 272.689 133.824 272.903 133.631C273.116 133.439 273.387 133.334 273.667 133.336H273.656Z" fill="white"/>
<path d="M301.72 107.234C307.204 107.234 311.649 102.496 311.649 96.6508C311.649 90.8056 307.204 86.0671 301.72 86.0671C296.236 86.0671 291.791 90.8056 291.791 96.6508C291.791 102.496 296.236 107.234 301.72 107.234Z" fill="#407BFF"/>
<path d="M295.998 102.746C295.844 102.581 295.757 102.357 295.757 102.123C295.757 101.89 295.844 101.666 295.998 101.501L306.269 90.553C306.424 90.388 306.634 90.2953 306.853 90.2953C307.072 90.2953 307.282 90.388 307.437 90.553C307.592 90.7181 307.679 90.9421 307.679 91.1755C307.679 91.409 307.592 91.6329 307.437 91.7981L297.178 102.746C297.019 102.909 296.808 103 296.588 103C296.368 103 296.157 102.909 295.998 102.746Z" fill="white"/>
<path d="M305.002 102.96H302.104V100.611C302.952 100.515 303.737 100.087 304.307 99.4101C304.877 98.7332 305.191 97.8552 305.189 96.9457V95.7005C305.189 95.6743 305.184 95.6483 305.175 95.6241C305.166 95.5999 305.152 95.5779 305.134 95.5593C305.117 95.5408 305.096 95.5261 305.074 95.516C305.051 95.506 305.027 95.5008 305.002 95.5008H304.539C304.488 95.5007 304.439 95.5214 304.403 95.5585C304.366 95.5957 304.344 95.6465 304.341 95.7005C304.341 95.7278 304.346 95.7547 304.356 95.7797C304.366 95.8048 304.381 95.8273 304.399 95.846C304.418 95.8647 304.44 95.8792 304.464 95.8885C304.488 95.8978 304.514 95.9018 304.539 95.9002H304.815V96.9457C304.815 97.818 304.489 98.6545 303.911 99.2714C303.332 99.8882 302.547 100.235 301.729 100.235C300.911 100.235 300.126 99.8882 299.547 99.2714C298.968 98.6545 298.643 97.818 298.643 96.9457V95.9002H298.93C298.98 95.9002 299.027 95.8792 299.062 95.8417C299.097 95.8043 299.117 95.7535 299.117 95.7005C299.115 95.6485 299.094 95.5993 299.059 95.5625C299.025 95.5256 298.979 95.5036 298.93 95.5008H298.456C298.407 95.5036 298.361 95.5256 298.326 95.5625C298.292 95.5993 298.271 95.6485 298.269 95.7005V96.9457C298.269 97.8544 298.584 98.731 299.154 99.4074C299.723 100.084 300.507 100.512 301.354 100.611V102.96H298.456C298.356 102.963 298.26 103.008 298.19 103.084C298.12 103.161 298.081 103.264 298.081 103.371V103.77H305.377V103.371C305.377 103.264 305.337 103.161 305.268 103.084C305.198 103.008 305.102 102.963 305.002 102.96Z" fill="white"/>
<path d="M299.398 96.9934C299.439 97.6228 299.702 98.2122 300.135 98.6428C300.567 99.0733 301.137 99.3127 301.729 99.3127C302.321 99.3127 302.891 99.0733 303.323 98.6428C303.756 98.2122 304.019 97.6228 304.06 96.9934V92.0246C304.082 91.6839 304.038 91.3421 303.931 91.0204C303.824 90.6986 303.655 90.4038 303.437 90.1542C303.218 89.9047 302.954 89.7057 302.66 89.5696C302.366 89.4336 302.049 89.3633 301.729 89.3633C301.409 89.3633 301.092 89.4336 300.798 89.5696C300.504 89.7057 300.24 89.9047 300.021 90.1542C299.803 90.4038 299.635 90.6986 299.527 91.0204C299.42 91.3421 299.376 91.6839 299.398 92.0246V96.9934Z" fill="white"/>
<path d="M198.78 124.889H89.6383C86.4492 124.889 83.8638 127.645 83.8638 131.044V217.91C83.8638 221.31 86.4492 224.065 89.6383 224.065H198.78C201.97 224.065 204.555 221.31 204.555 217.91V131.044C204.555 127.645 201.97 124.889 198.78 124.889Z" fill="#407BFF"/>
<path d="M136.887 133.23C136.887 133.23 131.289 131.41 130.044 144.213C128.798 157.017 120.203 161.281 129.327 165.98C138.452 170.678 147.268 165.533 150.849 165.98C154.431 166.426 160.9 163.924 160.492 157.605C160.084 151.285 149.538 132.937 149.538 132.937L136.887 133.23Z" fill="#263238"/>
<path d="M182.523 189.587C180.55 196.635 174.886 215.312 170.555 214.666C165.232 213.891 161.563 193.522 161.563 193.522L163.028 168.855C163.028 168.855 168.902 168.855 171.481 200.382L177.696 186.122L182.523 189.587Z" fill="#263238"/>
<path d="M178.224 186.337L180.428 181.215L183.888 178.196L185.762 176.047C186.237 175.499 186.864 175.127 187.551 174.983C188.239 174.839 188.951 174.932 189.585 175.248L190.687 175.8C191.331 176.118 191.862 176.648 192.202 177.312C192.541 177.977 192.671 178.74 192.572 179.489L191.988 183.952L182.621 187.183C182.621 187.183 182.356 188.181 181.905 189.802L178.224 186.337Z" fill="#EEC1BB"/>
<path d="M177.333 184.538L183.901 189.33L183.394 191.985L176.132 186.488L177.333 184.538Z" fill="#263238"/>
<path opacity="0.2" d="M177.333 184.538L183.901 189.33L183.394 191.985L176.132 186.488L177.333 184.538Z" fill="white"/>
<path d="M127.291 224.064C127.291 224.064 126.288 196.072 118.387 171.204C133.009 167.556 148.13 166.76 163.018 168.855C163.018 168.855 166.687 186.674 162.279 224.064H127.291Z" fill="#263238"/>
<path opacity="0.2" d="M127.291 224.064C127.291 224.064 126.288 196.072 118.387 171.204C133.009 167.556 148.13 166.76 163.018 168.855C163.018 168.855 166.687 186.674 162.279 224.064H127.291Z" fill="white"/>
<path d="M132.874 208.419C134.207 207.878 134.989 207.538 134.989 207.538L140.918 204.601L145.326 200.137C145.6 199.858 145.813 199.517 145.949 199.14C146.086 198.762 146.143 198.358 146.117 197.954C146.09 197.551 145.981 197.159 145.797 196.805C145.613 196.452 145.358 196.146 145.051 195.909L142.263 193.818C141.98 193.602 141.66 193.449 141.32 193.368C140.981 193.286 140.63 193.278 140.288 193.344C139.946 193.41 139.62 193.548 139.329 193.75C139.037 193.953 138.787 194.215 138.593 194.523L133.612 202.428C133.612 202.428 132.51 202.769 130.725 203.239L132.874 208.419Z" fill="#EEC1BB"/>
<path d="M132.982 209.147C126.524 211.743 107.173 218.85 101.354 213.259C94.3344 206.504 118.391 171.206 118.391 171.206C124.816 178.947 122.502 186.946 122.502 186.946C122.502 186.946 110.126 200.866 111.294 204.296C112.319 207.362 125.036 204.296 130.855 202.757L132.982 209.147Z" fill="#263238"/>
<path d="M131.611 201.91L134.366 209.346L132.162 210.72L129.319 201.91H131.611Z" fill="#263238"/>
<path opacity="0.2" d="M131.611 201.91L134.366 209.346L132.162 210.72L129.319 201.91H131.611Z" fill="white"/>
<path d="M148.396 167.753H146.346C146.033 165.524 146.226 163.249 146.908 161.116L138.863 152.376C139.271 156.37 139.447 163.935 137.695 168.093C136.593 168.176 135.568 168.27 134.566 168.375C135.072 169.949 137.012 173.955 143.69 173.955C150.368 173.955 149.134 169.456 148.396 167.753Z" fill="#EEC1BB"/>
<path opacity="0.1" d="M140.376 155.585L139.451 158.228C140.897 161.233 143.294 163.596 146.217 164.9C146.313 163.615 146.546 162.346 146.911 161.118L141.578 155.315L140.376 155.585Z" fill="black"/>
<path d="M134.763 145.834C136.714 153.751 137.375 157.158 141.937 160.471C148.791 165.475 157.497 161.199 157.817 152.812C158.114 145.259 154.886 133.571 146.929 131.926C145.18 131.565 143.373 131.684 141.678 132.273C139.984 132.862 138.459 133.901 137.246 135.293C136.033 136.685 135.172 138.383 134.746 140.227C134.319 142.071 134.34 144.001 134.807 145.834H134.763Z" fill="#EEC1BB"/>
<path d="M134.155 152.542C134.498 153.238 134.967 153.854 135.534 154.356C136.101 154.858 136.756 155.235 137.461 155.467C139.345 156.078 140.326 154.292 139.83 152.366C139.389 150.639 137.88 148.243 135.962 148.478C135.299 148.585 134.702 148.968 134.301 149.542C133.901 150.116 133.729 150.835 133.824 151.544C133.873 151.896 133.985 152.235 134.155 152.542Z" fill="#EEC1BB"/>
<path d="M151.896 145.728C152.712 147.104 153.702 148.353 154.839 149.44C154.575 149.746 154.25 149.987 153.887 150.143C153.525 150.3 153.135 150.368 152.745 150.344L151.896 145.728Z" fill="#D58745"/>
<path d="M145.261 142.755C145.21 142.767 145.158 142.767 145.107 142.755C145.039 142.709 144.991 142.637 144.972 142.553C144.954 142.47 144.966 142.382 145.008 142.309C145.291 141.78 145.688 141.331 146.168 141C146.647 140.669 147.194 140.465 147.763 140.406C147.844 140.405 147.922 140.438 147.981 140.497C148.041 140.556 148.077 140.637 148.082 140.723C148.085 140.808 148.057 140.891 148.004 140.955C147.95 141.019 147.876 141.057 147.796 141.063C147.327 141.117 146.876 141.289 146.481 141.564C146.086 141.84 145.759 142.212 145.526 142.649C145.495 142.692 145.455 142.724 145.408 142.743C145.361 142.762 145.31 142.766 145.261 142.755Z" fill="#2E353A"/>
<path d="M152.566 139.374C152.53 139.334 152.503 139.286 152.489 139.233C152.477 139.192 152.473 139.149 152.478 139.107C152.482 139.064 152.494 139.023 152.514 138.986C152.533 138.948 152.56 138.916 152.591 138.89C152.623 138.863 152.659 138.844 152.698 138.834C153.245 138.653 153.824 138.614 154.388 138.72C154.951 138.827 155.483 139.075 155.938 139.444C155.976 139.469 156.008 139.503 156.033 139.542C156.058 139.582 156.074 139.627 156.081 139.674C156.088 139.721 156.085 139.769 156.073 139.814C156.061 139.86 156.039 139.902 156.01 139.938C155.981 139.975 155.945 140.003 155.905 140.023C155.864 140.043 155.82 140.053 155.776 140.053C155.731 140.053 155.687 140.043 155.647 140.023C155.606 140.003 155.57 139.974 155.541 139.938C155.163 139.637 154.722 139.437 154.256 139.356C153.79 139.274 153.313 139.312 152.863 139.468C152.81 139.48 152.755 139.478 152.703 139.462C152.651 139.446 152.604 139.415 152.566 139.374Z" fill="#2E353A"/>
<path d="M147.352 145.55C147.473 146.208 147.892 146.725 148.3 146.584C148.708 146.443 148.928 145.903 148.796 145.245C148.664 144.587 148.256 144.141 147.859 144.223C147.462 144.305 147.231 144.892 147.352 145.55Z" fill="#2E353A"/>
<path d="M154.267 144.106C154.377 144.752 154.807 145.21 155.203 145.128C155.6 145.045 155.831 144.458 155.71 143.8C155.589 143.142 155.17 142.684 154.774 142.766C154.377 142.849 154.156 143.448 154.267 144.106Z" fill="#2E353A"/>
<path d="M154.63 142.838L156.019 142.087C156.019 142.087 155.49 143.461 154.63 142.838Z" fill="#2E353A"/>
<path d="M147.663 144.295L149.041 143.543C149.041 143.543 148.556 144.917 147.663 144.295Z" fill="#2E353A"/>
<path d="M153.409 152.435C151.696 152.332 149.978 152.387 148.274 152.6C148.598 153.231 149.104 153.734 149.718 154.034C150.331 154.335 151.019 154.417 151.679 154.268C153.608 154.08 153.409 152.435 153.409 152.435Z" fill="#2E353A"/>
<path d="M150.709 153.49C151.459 153.373 152.225 153.491 152.913 153.831C152.57 154.092 152.165 154.242 151.744 154.265C150.994 154.383 150.228 154.264 149.54 153.925C149.883 153.664 150.288 153.513 150.709 153.49Z" fill="#DE5753"/>
<path d="M153.231 152.422C153.204 152.564 153.14 152.694 153.046 152.798C152.953 152.902 152.833 152.975 152.702 153.01C151.602 153.101 150.497 153.101 149.396 153.01C149.222 153.015 149.05 152.976 148.893 152.896C148.736 152.817 148.599 152.699 148.493 152.552C150.067 152.388 151.651 152.344 153.231 152.422Z" fill="white"/>
<path d="M136.881 152.024C136.881 152.024 140.187 149.064 139.449 142.756C138.711 136.448 146.204 142.333 147.703 137.047C149.202 131.761 155.659 142.486 158.833 136.025C162.007 129.564 147.527 127.99 146.083 129.858C144.639 131.726 124.847 128.683 136.881 152.024Z" fill="#263238"/>
<path d="M194.811 204.435H93.5923C92.1438 204.435 90.9696 205.687 90.9696 207.231V212.54C90.9696 214.084 92.1438 215.336 93.5923 215.336H194.811C196.26 215.336 197.434 214.084 197.434 212.54V207.231C197.434 205.687 196.26 204.435 194.811 204.435Z" fill="white"/>
<path d="M104.303 212.612V207.174L107.499 209.899L104.303 212.612Z" fill="#263238"/>
<path d="M112.641 211.499L114.04 209.925L112.641 208.339V211.499Z" fill="#263238"/>
<path d="M114.046 208.397V209.924V211.451H114.674V208.397H114.046Z" fill="#263238"/>
<path d="M99.1481 208.339L97.7595 209.925L99.1481 211.499V208.339Z" fill="#263238"/>
<path d="M97.7604 211.451V209.924V208.397H97.1213V211.451H97.7604Z" fill="#263238"/>
<path d="M192.501 209.125H124.431V210.722H192.501V209.125Z" fill="#263238"/>
<path d="M156.68 206.317H154.256V213.459H156.68V206.317Z" fill="#407BFF"/>
<path d="M367.838 122.768C371.11 107.987 362.522 93.1765 348.656 89.6878C334.789 86.1992 320.894 95.3535 317.622 110.134C314.349 124.915 322.937 139.726 336.804 143.215C350.67 146.703 364.565 137.549 367.838 122.768Z" fill="#407BFF"/>
<path opacity="0.7" d="M367.838 122.768C371.11 107.987 362.522 93.1765 348.656 89.6878C334.789 86.1992 320.894 95.3535 317.622 110.134C314.349 124.915 322.937 139.726 336.804 143.215C350.67 146.703 364.565 137.549 367.838 122.768Z" fill="white"/>
<g opacity="0.8">
<path d="M337.532 125.806C338.929 124.361 340.798 123.552 342.745 123.552C344.691 123.552 346.561 124.361 347.957 125.806C349.357 127.18 351.472 124.948 350.062 123.562C348.097 121.544 345.474 120.416 342.745 120.416C340.016 120.416 337.393 121.544 335.427 123.562C334.017 124.948 336.122 127.18 337.532 125.806Z" fill="#407BFF"/>
<path d="M341.732 130.282C342.001 129.999 342.363 129.84 342.741 129.84C343.118 129.84 343.481 129.999 343.749 130.282C345.16 131.669 347.265 129.425 345.854 128.039C345.018 127.18 343.902 126.7 342.741 126.7C341.58 126.7 340.464 127.18 339.628 128.039C338.217 129.425 340.333 131.669 341.732 130.282Z" fill="#407BFF"/>
<path d="M332.004 119.909C334.882 116.935 338.734 115.271 342.743 115.271C346.752 115.271 350.603 116.935 353.482 119.909C354.892 121.284 356.997 119.052 355.587 117.666C352.138 114.121 347.534 112.14 342.743 112.14C337.952 112.14 333.348 114.121 329.899 117.666C328.488 119.052 330.604 121.296 332.004 119.909Z" fill="#407BFF"/>
<path d="M326.972 114.528C331.202 110.159 336.862 107.716 342.752 107.716C348.643 107.716 354.302 110.159 358.533 114.528C359.932 115.926 362.037 113.694 360.638 112.285C355.841 107.337 349.427 104.571 342.752 104.571C336.077 104.571 329.664 107.337 324.867 112.285C323.467 113.694 325.572 115.926 326.972 114.528Z" fill="#407BFF"/>
</g>
<path d="M137.304 289.378C151.96 289.378 163.84 276.714 163.84 261.092C163.84 245.47 151.96 232.806 137.304 232.806C122.649 232.806 110.768 245.47 110.768 261.092C110.768 276.714 122.649 289.378 137.304 289.378Z" fill="#407BFF"/>
<path opacity="0.7" d="M137.304 289.378C151.96 289.378 163.84 276.714 163.84 261.092C163.84 245.47 151.96 232.806 137.304 232.806C122.649 232.806 110.768 245.47 110.768 261.092C110.768 276.714 122.649 289.378 137.304 289.378Z" fill="white"/>
<path d="M131.533 252.092V259.387L123.29 252.962V269.219L131.533 262.782V270.088H151.314V252.092H131.533Z" fill="#407BFF"/>
<path d="M451.29 156.038C454.204 142.88 446.558 129.696 434.214 126.59C421.869 123.484 409.5 131.634 406.587 144.792C403.673 157.95 411.319 171.135 423.663 174.24C436.007 177.346 448.376 169.197 451.29 156.038Z" fill="#407BFF"/>
<path opacity="0.7" d="M451.29 156.038C454.204 142.88 446.558 129.696 434.214 126.59C421.869 123.484 409.5 131.634 406.587 144.792C403.673 157.95 411.319 171.135 423.663 174.24C436.007 177.346 448.376 169.197 451.29 156.038Z" fill="white"/>
<path d="M435.643 163.276H429.78V158.578C431.509 158.37 433.106 157.492 434.267 156.109C435.427 154.727 436.07 152.938 436.073 151.084V148.546C436.07 148.439 436.028 148.338 435.956 148.263C435.884 148.189 435.787 148.147 435.687 148.147H434.728C434.673 148.137 434.616 148.14 434.562 148.155C434.508 148.171 434.457 148.199 434.414 148.238C434.372 148.276 434.337 148.325 434.313 148.379C434.29 148.433 434.277 148.492 434.277 148.552C434.277 148.612 434.29 148.671 434.313 148.725C434.337 148.78 434.372 148.828 434.414 148.866C434.457 148.905 434.508 148.933 434.562 148.949C434.616 148.965 434.673 148.967 434.728 148.957H435.29V151.084C435.29 152.862 434.627 154.568 433.447 155.826C432.267 157.084 430.667 157.791 428.998 157.791C427.329 157.791 425.728 157.084 424.548 155.826C423.368 154.568 422.705 152.862 422.705 151.084V148.957H423.278C423.334 148.967 423.39 148.965 423.445 148.949C423.499 148.933 423.549 148.905 423.592 148.866C423.635 148.828 423.669 148.78 423.693 148.725C423.717 148.671 423.729 148.612 423.729 148.552C423.729 148.492 423.717 148.433 423.693 148.379C423.669 148.325 423.635 148.276 423.592 148.238C423.549 148.199 423.499 148.171 423.445 148.155C423.39 148.14 423.334 148.137 423.278 148.147H422.32C422.269 148.145 422.22 148.154 422.173 148.174C422.126 148.193 422.083 148.222 422.047 148.26C422.012 148.297 421.983 148.341 421.963 148.391C421.944 148.44 421.934 148.493 421.934 148.546V151.084C421.934 152.939 422.576 154.729 423.737 156.112C424.898 157.495 426.496 158.373 428.226 158.578V163.276H422.287C422.082 163.276 421.886 163.363 421.741 163.517C421.596 163.672 421.515 163.881 421.515 164.099V164.921H436.392V164.099C436.392 163.885 436.314 163.679 436.174 163.525C436.034 163.372 435.844 163.283 435.643 163.276Z" fill="#407BFF"/>
<path d="M428.965 156.228C430.227 156.228 431.438 155.693 432.331 154.742C433.224 153.79 433.725 152.499 433.725 151.153H424.204C424.203 151.82 424.325 152.481 424.563 153.097C424.802 153.713 425.153 154.273 425.595 154.745C426.038 155.217 426.563 155.59 427.141 155.845C427.719 156.099 428.339 156.229 428.965 156.228Z" fill="#407BFF"/>
<path d="M433.725 140.957C433.725 139.611 433.224 138.321 432.331 137.369C431.438 136.417 430.227 135.883 428.965 135.883C427.702 135.883 426.491 136.417 425.598 137.369C424.706 138.321 424.204 139.611 424.204 140.957V150.19H433.725V140.957Z" fill="#407BFF"/>
</svg>
